<svg xmlns="http://www.w3.org/2000/svg" xmlns:xlink="http://www.w3.org/1999/xlink" width="32" height="32" viewBox="0 0 32 32">
  <defs>
    <clipPath id="clip-path">
      <rect width="32" height="32" fill="none"/>
    </clipPath>
  </defs>
  <g id="icon_Switcher_HiFi" clip-path="url(#clip-path)">
    <g id="Boundary" fill="#fff" stroke="#707070" stroke-width="1" opacity="0">
      <rect width="32" height="32" stroke="none"/>
      <rect x="0.5" y="0.5" width="31" height="31" fill="none"/>
    </g>
    <g id="target">
      <path id="Path_67" data-name="Path 67" d="M30.633,15.333A14.662,14.662,0,0,0,16.667,1.367a9.669,9.669,0,0,0-1.333,0A14.662,14.662,0,0,0,1.367,15.333c-.017,0,0,1.344,0,1.333A14.662,14.662,0,0,0,15.333,30.633s1.36.027,1.333,0A14.662,14.662,0,0,0,30.633,16.667Z" fill="#303c42"/>
      <path id="Path_68" data-name="Path 68" d="M69.806,57.173A13.329,13.329,0,0,1,57.173,69.806c.009-.034-1.288,0-1.333,0A13.329,13.329,0,0,1,43.207,57.173c.008.015.023-1.247,0-1.333A13.329,13.329,0,0,1,55.84,43.207a10.294,10.294,0,0,0,1.333,0A13.329,13.329,0,0,1,69.806,55.84Z" transform="translate(-40.507 -40.507)" fill="#bbdefb"/>
      <circle id="Ellipse_13" data-name="Ellipse 13" cx="3.333" cy="3.333" r="3.333" transform="translate(10 9.333)" fill="#303c42"/>
      <circle id="Ellipse_14" data-name="Ellipse 14" cx="2" cy="2" r="2" transform="translate(11.333 10.667)" fill="#1e88e5"/>
      <path id="Path_72" data-name="Path 72" d="M188.833,175.428a1.98,1.98,0,0,1,.3,1.036,2,2,0,0,1-2,2,1.98,1.98,0,0,1-1.036-.3,1.995,1.995,0,1,0,2.738-2.738Z" transform="translate(-174.464 -164.464)" opacity="0.1"/>
      <circle id="Ellipse_15" data-name="Ellipse 15" cx="2.667" cy="2.667" r="2.667" transform="translate(16.667 9.333)" fill="#303c42"/>
      <circle id="Ellipse_16" data-name="Ellipse 16" cx="1.333" cy="1.333" r="1.333" transform="translate(18 10.667)" fill="#1e88e5"/>
      <path id="Path_73" data-name="Path 73" d="M291.714,172.625a1.313,1.313,0,0,1,.122.544A1.335,1.335,0,0,1,290.5,174.5a1.314,1.314,0,0,1-.544-.122,1.33,1.33,0,1,0,1.755-1.755Z" transform="translate(-271.837 -161.836)" opacity="0.1"/>
      <path id="Path_74" data-name="Path 74" d="M118.774,248.042a9.251,9.251,0,0,1,4.56-1.376,7.343,7.343,0,0,1,1.375.136,2.287,2.287,0,0,1,.643-.487,8.563,8.563,0,0,1,7.965,0,2.32,2.32,0,0,1,1.351,2.088v.3A1.315,1.315,0,0,1,133.334,250h-4.086a3.3,3.3,0,0,1,.086.7v.427a1.49,1.49,0,0,1-1.428,1.542h-9.143a1.49,1.49,0,0,1-1.428-1.542V250.7A3.061,3.061,0,0,1,118.774,248.042Z" transform="translate(-110.001 -230)" fill="#303c42"/>
      <g id="Group_25" data-name="Group 25" transform="translate(8.667 16.667)">
        <path id="Path_75" data-name="Path 75" d="M269.177,268.708v-.3a1,1,0,0,0-.6-.886,8.1,8.1,0,0,0-3.4-.851,7.7,7.7,0,0,0-2.944.651,11.579,11.579,0,0,1,1.5.725,2.76,2.76,0,0,1,.707.627Z" transform="translate(-254.51 -266.666)" fill="#1e88e5"/>
        <path id="Path_76" data-name="Path 76" d="M138.667,291.125a.223.223,0,0,0,.1.208h9.143a.223.223,0,0,0,.1-.208V290.7a1.751,1.751,0,0,0-.784-1.507,6.926,6.926,0,0,0-7.766,0,1.751,1.751,0,0,0-.784,1.507Z" transform="translate(-138.667 -286.667)" fill="#1e88e5"/>
      </g>
      <g id="Group_26" data-name="Group 26" transform="translate(17.333 16.773)">
        <path id="Path_77" data-name="Path 77" d="M295.256,269.107a8.92,8.92,0,0,0-2.29-.745,3.984,3.984,0,0,0-2.28,1.474,3.2,3.2,0,0,1,.432.423l4.733.039v-.3A1,1,0,0,0,295.256,269.107Z" transform="translate(-289.852 -268.362)" fill="#fff" opacity="0.2"/>
        <path id="Path_78" data-name="Path 78" d="M277.4,313.182h.5a.223.223,0,0,0,.1-.208v-.427a1.857,1.857,0,0,0-.46-1.241,3.533,3.533,0,0,0-.139,1.877Z" transform="translate(-277.334 -308.621)" fill="#fff" opacity="0.2"/>
        <path id="Path_79" data-name="Path 79" d="M292.989,295.368v.248a1.315,1.315,0,0,1-1.333,1.292h-4.086a3.3,3.3,0,0,1,.086.7v.427a1.49,1.49,0,0,1-1.428,1.542h-.017a3.991,3.991,0,1,0,6.779-4.206Z" transform="translate(-285.655 -293.68)" fill="#fff" opacity="0.2"/>
      </g>
    </g>
  </g>
</svg>
