<svg xmlns="http://www.w3.org/2000/svg" xmlns:xlink="http://www.w3.org/1999/xlink" width="30" height="30" viewBox="0 0 30 30">
  <defs>
    <clipPath id="clip-path">
      <rect width="30" height="30" fill="none"/>
    </clipPath>
  </defs>
  <g id="icon_Dashboard_HiFi-M_InActive" clip-path="url(#clip-path)">
    <g id="Group_20" data-name="Group 20" transform="translate(-32 -183)">
      <rect id="Boundary" width="30" height="30" transform="translate(32 183)" fill="none"/>
      <g id="Glyph" transform="translate(33 188)">
        <g id="Group_17" data-name="Group 17">
          <g id="Group_16" data-name="Group 16">
            <path id="Path_33" data-name="Path 33" d="M213.916,385.111h3.5a.556.556,0,1,0,0-1.111h-3.5a.556.556,0,1,0,0,1.111Z" transform="translate(-201.666 -367.333)" fill="#424242"/>
            <path id="Path_34" data-name="Path 34" d="M23.164,69.132A10.6,10.6,0,0,0,14,64a10.6,10.6,0,0,0-9.161,5.128A7.755,7.755,0,0,0,0,76.222,7.989,7.989,0,0,0,8.167,84a8.488,8.488,0,0,0,2.747-.457,10.646,10.646,0,0,0,6.174,0A8.482,8.482,0,0,0,19.833,84,7.989,7.989,0,0,0,28,76.222,7.745,7.745,0,0,0,23.164,69.132Zm-2.747.423a.556.556,0,1,1-.583.556A.57.57,0,0,1,20.417,69.556Zm0,6.667a.556.556,0,1,1-.583.556A.57.57,0,0,1,20.417,76.222Zm-2.333-8.889a.556.556,0,1,1-.583.556A.57.57,0,0,1,18.083,67.333ZM14,66.222a.556.556,0,1,1-.583.556A.57.57,0,0,1,14,66.222Zm-1.312,5.943a.556.556,0,0,0,.243-.35l.5-2.368a.589.589,0,0,1,1.144,0l.5,2.368a.556.556,0,0,0,.243.35A2.194,2.194,0,0,1,16.333,74a2.336,2.336,0,0,1-4.667,0A2.194,2.194,0,0,1,12.688,72.165ZM9.917,67.333a.556.556,0,1,1-.583.556A.57.57,0,0,1,9.917,67.333ZM7.583,69.556A.556.556,0,1,1,7,70.111.57.57,0,0,1,7.583,69.556Zm.583,7.222a.584.584,0,1,1-.583-.556A.57.57,0,0,1,8.167,76.778ZM5.833,73.444A.584.584,0,1,1,6.417,74,.57.57,0,0,1,5.833,73.444ZM14,82.889a9.452,9.452,0,0,1-7.276-3.333H21.276A9.452,9.452,0,0,1,14,82.889ZM21.583,74a.556.556,0,1,1,.583-.556A.57.57,0,0,1,21.583,74Z" transform="translate(0 -64)" fill="#424242"/>
          </g>
        </g>
      </g>
    </g>
  </g>
</svg>
