<svg xmlns="http://www.w3.org/2000/svg" xmlns:xlink="http://www.w3.org/1999/xlink" width="20" height="20" viewBox="0 0 20 20">
  <defs>
    <clipPath id="clip-path">
      <rect width="20" height="20" fill="none"/>
    </clipPath>
  </defs>
  <g id="icon_Frubies-HiFi_20px" clip-path="url(#clip-path)">
    <rect id="Rectangle_5" data-name="Rectangle 5" width="20" height="20" fill="none"/>
    <g id="Glyph" transform="translate(1 -61)">
      <path id="Path_88" data-name="Path 88" d="M17.89,68.781l-4.5-4.667A.368.368,0,0,0,13.125,64H4.875a.368.368,0,0,0-.265.114L.11,68.781a.4.4,0,0,0,.006.556L8.74,77.892a.366.366,0,0,0,.519,0l8.625-8.556a.4.4,0,0,0,.006-.556Z" transform="translate(0)" fill="#303c42"/>
      <g id="Group_30" data-name="Group 30" transform="translate(1.28 64.778)">
        <path id="Path_89" data-name="Path 89" d="M199.045,213.334l-2.154,6.9-2.154-6.9Z" transform="translate(-189.171 -208.667)" fill="#e7633f"/>
        <path id="Path_90" data-name="Path 90" d="M199.9,99.333l1.972-3.506,1.972,3.506Z" transform="translate(-194.153 -95.444)" fill="#e7633f"/>
        <path id="Path_91" data-name="Path 91" d="M274.567,85.334h2.957l-1.055,3.381Z" transform="translate(-266.195 -85.334)" fill="#e7633f"/>
        <path id="Path_92" data-name="Path 92" d="M154.381,88.715l-1.055-3.381h2.957Z" transform="translate(-149.216 -85.334)" fill="#e7633f"/>
        <path id="Path_93" data-name="Path 93" d="M40.952,98.086H36.417l3.427-3.554Z" transform="translate(-36.417 -94.197)" fill="#e7633f"/>
        <path id="Path_94" data-name="Path 94" d="M41.991,213.334l2.128,6.821-6.877-6.821Z" transform="translate(-37.213 -208.667)" fill="#e7633f"/>
        <path id="Path_95" data-name="Path 95" d="M281.274,213.334h4.749l-6.877,6.821Z" transform="translate(-270.613 -208.667)" fill="#e7633f"/>
        <path id="Path_96" data-name="Path 96" d="M346.58,98.086l1.109-3.554,3.427,3.554Z" transform="translate(-335.676 -94.197)" fill="#e7633f"/>
      </g>
      <path id="Path_97" data-name="Path 97" d="M284.707,213.334l-5.561,6.821,6.877-6.821Z" transform="translate(-269.333 -143.89)" opacity="0.1"/>
      <path id="Path_98" data-name="Path 98" d="M378.115,94.532l2.074,3.556,1.353,0Z" transform="translate(-364.822 -29.419)" opacity="0.1"/>
      <g id="Group_31" data-name="Group 31" transform="translate(1.28 65.113)">
        <path id="Path_99" data-name="Path 99" d="M194.737,213.334l2.154,6.9-.375-6.9Z" transform="translate(-189.171 -209.003)" fill="#fff" opacity="0.2"/>
        <path id="Path_100" data-name="Path 100" d="M201.5,99.333l.375-3.506L199.9,99.333Z" transform="translate(-194.153 -95.78)" fill="#fff" opacity="0.2"/>
        <path id="Path_101" data-name="Path 101" d="M39.844,94.532l-3.427,3.554h2.095Z" transform="translate(-36.417 -94.532)" fill="#fff" opacity="0.2"/>
        <path id="Path_102" data-name="Path 102" d="M37.242,213.334l6.877,6.821-4.874-6.821Z" transform="translate(-37.213 -209.003)" fill="#fff" opacity="0.2"/>
      </g>
    </g>
  </g>
</svg>
