<svg xmlns="http://www.w3.org/2000/svg" xmlns:xlink="http://www.w3.org/1999/xlink" width="30" height="30" viewBox="0 0 30 30">
  <defs>
    <clipPath id="clip-path">
      <rect width="30" height="30" fill="none"/>
    </clipPath>
    <linearGradient id="linear-gradient" x1="-0.096" y1="1.252" x2="-0.04" y2="1.226" gradientUnits="objectBoundingBox">
      <stop offset="0" stop-color="#fff" stop-opacity="0.2"/>
      <stop offset="1" stop-color="#fff" stop-opacity="0"/>
    </linearGradient>
  </defs>
  <g id="icon_GamePlan_HiFi-M_Active" clip-path="url(#clip-path)">
    <rect id="Boundary" width="30" height="30" fill="none"/>
    <g id="treasure-map" transform="translate(0.997 0.999)">
      <path id="Path_47" data-name="Path 47" d="M28,.673a.584.584,0,0,0-.76-.643C27.2.042,23.7,1.168,15.753,1.168A127.019,127.019,0,0,1,.669.007a.577.577,0,0,0-.531.2.582.582,0,0,0-.1.559A27.751,27.751,0,0,1,1.17,8.751a.584.584,0,0,0,.448.567A3.555,3.555,0,0,1,4.67,12.834c0,2.21-.943,3.323-2.968,3.5a.583.583,0,0,0-.532.581A41.88,41.88,0,0,1,.026,27.257a.583.583,0,0,0,.665.734A75.733,75.733,0,0,1,10.5,26.834c5.161,0,16.742,1.152,16.858,1.164l.058,0A.584.584,0,0,0,28,27.321a97.787,97.787,0,0,1-1.159-13.9A105.923,105.923,0,0,1,28,.673Z" transform="translate(0 0)" fill="#303c42"/>
      <path id="Path_48" data-name="Path 48" d="M34.059,47.8a67.632,67.632,0,0,0-9.137,1.022,45.5,45.5,0,0,0,.968-9.259c2.295-.394,3.5-1.973,3.5-4.6a4.607,4.607,0,0,0-3.5-4.529,29.96,29.96,0,0,0-.937-7.024,124.617,124.617,0,0,0,14.357,1.053,50.113,50.113,0,0,0,10.962-.96A100.465,100.465,0,0,0,49.226,35.55,98.362,98.362,0,0,0,50.285,48.9C47.617,48.641,38.507,47.8,34.059,47.8Z" transform="translate(-23.556 -22.133)" fill="#ffe082"/>
      <path id="Path_49" data-name="Path 49" d="M34.059,47.8a67.632,67.632,0,0,0-9.137,1.022,45.5,45.5,0,0,0,.968-9.259c2.295-.394,3.5-1.973,3.5-4.6a4.607,4.607,0,0,0-3.5-4.529,29.96,29.96,0,0,0-.937-7.024,124.617,124.617,0,0,0,14.357,1.053,50.113,50.113,0,0,0,10.962-.96A100.465,100.465,0,0,0,49.226,35.55,98.362,98.362,0,0,0,50.285,48.9C47.617,48.641,38.507,47.8,34.059,47.8Z" transform="translate(-23.556 -22.133)" fill="#8d6e63" opacity="0.15"/>
      <path id="Path_50" data-name="Path 50" d="M197.819,469.341c-.033,0-.072,0-.106,0,.931.007,2.035.046,3.232.107C199.773,469.384,198.691,469.341,197.819,469.341Z" transform="translate(-186.898 -443.674)" fill="#fff" opacity="0.2"/>
      <path id="Path_51" data-name="Path 51" d="M445.144,25.422a111.512,111.512,0,0,0-.886,11.743,110.892,110.892,0,0,0,.916,13.2c.611.056,1.134.105,1.515.142a98.364,98.364,0,0,1-1.059-13.346,100.476,100.476,0,0,1,1.046-12.043C446.294,25.21,445.785,25.315,445.144,25.422Z" transform="translate(-419.96 -23.747)" opacity="0.1"/>
      <g id="Group_21" data-name="Group 21" transform="translate(1.366 1.281)">
        <path id="Path_52" data-name="Path 52" d="M256.819,42.249c.505.014,1.009.023,1.5.023h.072C257.875,42.27,257.348,42.262,256.819,42.249Z" transform="translate(-244.137 -41.219)" fill="#fff" opacity="0.2"/>
        <path id="Path_53" data-name="Path 53" d="M25.89,39.563a45.5,45.5,0,0,1-.968,9.259c.4-.068.944-.156,1.543-.248a51.752,51.752,0,0,0,.808-9.011c2.024-.394,3.089-1.973,3.089-4.6a4.549,4.549,0,0,0-3.09-4.529,33.752,33.752,0,0,0-.784-6.836c-.613-.072-1.138-.137-1.534-.188a29.96,29.96,0,0,1,.937,7.024,4.607,4.607,0,0,1,3.5,4.529C29.393,37.59,28.185,39.169,25.89,39.563Z" transform="translate(-24.922 -23.414)" fill="#fff" opacity="0.2"/>
      </g>
      <circle id="Ellipse_11" data-name="Ellipse 11" cx="2.333" cy="2.333" r="2.333" transform="translate(18.67 19.833)" fill="#303c42"/>
      <circle id="Ellipse_12" data-name="Ellipse 12" cx="1.167" cy="1.167" r="1.167" transform="translate(19.837 21)" fill="#ef5350"/>
      <g id="Group_22" data-name="Group 22" transform="translate(6.76 4.665)">
        <path id="Path_54" data-name="Path 54" d="M124.723,341.924a.583.583,0,0,0-1.167,0,4,4,0,0,0,.245,1.34.584.584,0,0,0,.549.385.576.576,0,0,0,.2-.035.584.584,0,0,0,.35-.747A2.813,2.813,0,0,1,124.723,341.924Z" transform="translate(-123.556 -327.339)" fill="#303c42"/>
        <path id="Path_55" data-name="Path 55" d="M197.36,94.8a.584.584,0,0,0,.359-.124,5.184,5.184,0,0,1,1.772-.857.583.583,0,1,0-.321-1.121A6.328,6.328,0,0,0,197,93.756a.583.583,0,0,0,.36,1.043Z" transform="translate(-192.772 -92.271)" fill="#303c42"/>
        <path id="Path_56" data-name="Path 56" d="M153.824,394.693a2.784,2.784,0,0,1-1.647-.508.583.583,0,1,0-.676.951,4.013,4.013,0,0,0,2.417.723.545.545,0,0,0,.537-.583A.625.625,0,0,0,153.824,394.693Z" transform="translate(-149.741 -377.191)" fill="#303c42"/>
        <path id="Path_57" data-name="Path 57" d="M166.816,145.41h0a.589.589,0,0,0,.583-.59,5.262,5.262,0,0,1,.327-1.932.584.584,0,0,0-1.086-.428,6.441,6.441,0,0,0-.4,2.374h0A.577.577,0,0,0,166.816,145.41Z" transform="translate(-163.899 -138.985)" fill="#303c42"/>
        <path id="Path_58" data-name="Path 58" d="M176.808,222.053a2.748,2.748,0,0,1-1.328-1.205.583.583,0,0,0-1.033.541A3.9,3.9,0,0,0,176.3,223.1a.583.583,0,1,0,.507-1.05Z" transform="translate(-171.601 -213.138)" fill="#303c42"/>
        <path id="Path_59" data-name="Path 59" d="M273.154,86.508a6.994,6.994,0,0,1,2.018.06.565.565,0,0,0,.137.017.583.583,0,0,0,.136-1.15,8.06,8.06,0,0,0-2.375-.089.583.583,0,0,0-.54.623A.575.575,0,0,0,273.154,86.508Z" transform="translate(-264.382 -85.3)" fill="#303c42"/>
        <path id="Path_60" data-name="Path 60" d="M244.571,261.527a5.89,5.89,0,0,0-2.186-1.066.583.583,0,1,0-.344,1.114,4.923,4.923,0,0,1,1.761.829.583.583,0,1,0,.769-.877Z" transform="translate(-235.173 -250.857)" fill="#303c42"/>
        <path id="Path_61" data-name="Path 61" d="M289.991,313.231a.583.583,0,0,0-.537.626c.008.1.012.213.012.326a4.929,4.929,0,0,1-.243,1.61.583.583,0,1,0,1.1.383,6.09,6.09,0,0,0,.308-1.993c0-.144-.005-.282-.015-.415A.585.585,0,0,0,289.991,313.231Z" transform="translate(-280.132 -300.764)" fill="#303c42"/>
        <path id="Path_62" data-name="Path 62" d="M231.6,385.327a4.577,4.577,0,0,1-1.78.774.583.583,0,0,0,.256,1.138,5.727,5.727,0,0,0,2.23-.984.583.583,0,1,0-.706-.929Z" transform="translate(-223.58 -368.806)" fill="#303c42"/>
        <path id="Path_63" data-name="Path 63" d="M348.335,111.367a.583.583,0,0,0,1.113-.349,3.956,3.956,0,0,0-.676-1.2.583.583,0,0,0-.908.733A2.93,2.93,0,0,1,348.335,111.367Z" transform="translate(-335.475 -108.274)" fill="#303c42"/>
        <path id="Path_64" data-name="Path 64" d="M315.87,151.01a.583.583,0,0,0,.423.218h.033a.583.583,0,0,0,.412-.171l.516-.515a.584.584,0,0,0-.048-.868l-2.007-1.606,2.007-1.606a.584.584,0,0,0,.048-.868l-.516-.515a.607.607,0,0,0-.445-.17.584.584,0,0,0-.423.218l-1.606,2.007-1.606-2.007a.583.583,0,0,0-.423-.218.623.623,0,0,0-.445.17l-.516.515a.584.584,0,0,0,.048.868l2.007,1.606-2.007,1.606a.584.584,0,0,0-.048.868l.516.515a.583.583,0,0,0,.412.171h.032a.584.584,0,0,0,.423-.218L314.265,149Z" transform="translate(-300.848 -141.65)" fill="#303c42"/>
      </g>
      <path id="Path_65" data-name="Path 65" d="M28,.673a.584.584,0,0,0-.76-.643C27.2.042,23.7,1.168,15.753,1.168A127.019,127.019,0,0,1,.669.007a.577.577,0,0,0-.531.2.582.582,0,0,0-.1.559A27.751,27.751,0,0,1,1.17,8.751a.584.584,0,0,0,.448.567A3.555,3.555,0,0,1,4.67,12.834c0,2.21-.943,3.323-2.968,3.5a.583.583,0,0,0-.532.581A41.88,41.88,0,0,1,.026,27.257a.583.583,0,0,0,.665.734A75.733,75.733,0,0,1,10.5,26.834c5.161,0,16.742,1.152,16.858,1.164l.058,0A.584.584,0,0,0,28,27.321a97.787,97.787,0,0,1-1.159-13.9A105.923,105.923,0,0,1,28,.673Z" transform="translate(0 0)" fill="url(#linear-gradient)"/>
    </g>
  </g>
</svg>
