<svg xmlns="http://www.w3.org/2000/svg" xmlns:xlink="http://www.w3.org/1999/xlink" width="30" height="30" viewBox="0 0 30 30">
  <defs>
    <clipPath id="clip-path">
      <rect width="30" height="30" fill="none"/>
    </clipPath>
  </defs>
  <g id="icon_Levels_HiFi-M_InActive" clip-path="url(#clip-path)">
    <rect id="Boundary" width="30" height="30" fill="none"/>
    <g id="rocket" transform="translate(1 1)">
      <path id="Subtraction_1" data-name="Subtraction 1" d="M-21.92-2550a.582.582,0,0,1-.341-.11.587.587,0,0,1-.242-.473v-4.428l-.58-.581L-25-2553.671a.582.582,0,0,1-.412.171.583.583,0,0,1-.413-.171l-.374-.374a5.419,5.419,0,0,1-2.095,2.816,7.077,7.077,0,0,1-4.118,1.23.584.584,0,0,1-.583-.584,7.076,7.076,0,0,1,1.229-4.117,5.42,5.42,0,0,1,2.815-2.1l-.374-.374a.585.585,0,0,1,0-.825l1.922-1.92-.583-.583h-4.425a.585.585,0,0,1-.473-.242.583.583,0,0,1-.08-.526c1.264-3.792,3.287-6.156,9.456-6.228a35.042,35.042,0,0,1,7.7-7.379A18.037,18.037,0,0,1-5.584-2578a.584.584,0,0,1,.584.583,18.037,18.037,0,0,1-3.125,10.228,35.068,35.068,0,0,1-7.382,7.7c-.072,6.168-2.437,8.19-6.228,9.454A.571.571,0,0,1-21.92-2550Zm-6.046-5.81h0a3.775,3.775,0,0,0-2.5,1.319,5.588,5.588,0,0,0-1.345,3.3,5.59,5.59,0,0,0,3.3-1.344,3.773,3.773,0,0,0,1.318-2.5l-.774-.775ZM-13.75-2571a1.752,1.752,0,0,0-1.75,1.75,1.752,1.752,0,0,0,1.75,1.75A1.752,1.752,0,0,0-12-2569.25,1.752,1.752,0,0,0-13.75-2571Z" transform="translate(33 2578)" fill="#424242"/>
    </g>
  </g>
</svg>
