<svg xmlns="http://www.w3.org/2000/svg" xmlns:xlink="http://www.w3.org/1999/xlink" width="20" height="20" viewBox="0 0 20 20">
  <defs>
    <clipPath id="clip-path">
      <rect width="20" height="20" fill="none"/>
    </clipPath>
  </defs>
  <g id="icon_Sort-LoFi_20px" clip-path="url(#clip-path)">
    <rect id="Rectangle_6" data-name="Rectangle 6" width="20" height="20" fill="none"/>
    <g id="Glyph">
      <g id="Group_33" data-name="Group 33">
        <path id="Path_106" data-name="Path 106" d="M18.182,0H1.818A1.82,1.82,0,0,0,0,1.818V18.182A1.82,1.82,0,0,0,1.818,20H18.182A1.82,1.82,0,0,0,20,18.182V1.818A1.82,1.82,0,0,0,18.182,0ZM4.545,17.273a1.818,1.818,0,1,1,1.818-1.818A1.82,1.82,0,0,1,4.545,17.273ZM6.364,6.818a.455.455,0,0,1-.455.455H5.455A.454.454,0,0,0,5,7.727v3.636a.455.455,0,1,1-.909,0V7.727a.454.454,0,0,0-.455-.455H3.182a.455.455,0,0,1-.455-.455V5a.455.455,0,0,1,.455-.455h.455a.454.454,0,0,0,.455-.455V3.182a.455.455,0,1,1,.909,0v.909a.454.454,0,0,0,.455.455h.455A.455.455,0,0,1,6.364,5V6.818ZM10,17.273a1.818,1.818,0,1,1,1.818-1.818A1.82,1.82,0,0,1,10,17.273Zm1.818-7.727a.455.455,0,0,1-.455.455h-.455a.454.454,0,0,0-.455.455v.909a.455.455,0,1,1-.909,0v-.909A.454.454,0,0,0,9.091,10H8.636a.455.455,0,0,1-.455-.455V7.727a.455.455,0,0,1,.455-.455h.455a.454.454,0,0,0,.455-.455V3.182a.455.455,0,0,1,.909,0V6.818a.454.454,0,0,0,.455.455h.455a.455.455,0,0,1,.455.455V9.545Zm3.636,7.727a1.818,1.818,0,1,1,1.818-1.818A1.82,1.82,0,0,1,15.455,17.273Zm1.818-8.636a.455.455,0,0,1-.455.455h-.455a.454.454,0,0,0-.455.455v1.818a.455.455,0,1,1-.909,0V9.545a.454.454,0,0,0-.455-.455h-.455a.455.455,0,0,1-.455-.455V6.818a.455.455,0,0,1,.455-.455h.455A.454.454,0,0,0,15,5.909V3.182a.455.455,0,0,1,.909,0V5.909a.454.454,0,0,0,.455.455h.455a.455.455,0,0,1,.455.455V8.636Z" fill="#424242"/>
      </g>
    </g>
  </g>
</svg>
